# 3ds Max Wavefront OBJ-Export v0.97b - (c)2007 guruware
# Datei erstellt: 09.08.2012 15:19:39

mtllib ptu-pan.mtl

#
# object AbgekQuader002
#

v  0.0515 -0.0922 0.0201
v  0.0565 -0.0935 -0.0532
v  -0.0485 -0.0922 0.0201
v  -0.0535 -0.0935 -0.0532
v  0.0515 -0.1022 -0.0899
v  -0.0485 -0.1022 -0.0899
v  0.0515 -0.0935 0.0251
v  0.0540 -0.0935 0.0244
v  0.0559 -0.0935 0.0226
v  0.0565 -0.0935 0.0201
v  0.0565 -0.1035 -0.0899
v  0.0559 -0.1035 -0.0924
v  0.0540 -0.1035 -0.0942
v  0.0515 -0.1035 -0.0949
v  -0.0485 -0.1035 -0.0949
v  -0.0510 -0.1035 -0.0942
v  -0.0528 -0.1035 -0.0924
v  -0.0535 -0.1035 -0.0899
v  -0.0535 -0.0935 0.0201
v  -0.0528 -0.0935 0.0226
v  -0.0510 -0.0935 0.0244
v  -0.0485 -0.0935 0.0251
v  0.0515 -0.0972 0.0288
v  0.0559 -0.0972 0.0276
v  0.0590 -0.0972 0.0244
v  0.0602 -0.0972 0.0201
v  0.0602 -0.0972 -0.0532
v  0.0602 -0.1072 -0.0899
v  0.0590 -0.1072 -0.0942
v  0.0559 -0.1072 -0.0974
v  0.0515 -0.1072 -0.0985
v  -0.0485 -0.1072 -0.0985
v  -0.0528 -0.1072 -0.0974
v  -0.0560 -0.1072 -0.0942
v  -0.0571 -0.1072 -0.0899
v  -0.0571 -0.0972 -0.0532
v  -0.0571 -0.0972 0.0201
v  -0.0560 -0.0972 0.0244
v  -0.0528 -0.0972 0.0276
v  -0.0485 -0.0972 0.0288
v  0.0515 -0.1022 0.0301
v  0.0565 -0.1022 0.0288
v  0.0602 -0.1022 0.0251
v  0.0615 -0.1022 0.0201
v  0.0602 -0.1622 0.0251
v  0.0615 -0.1122 -0.0899
v  0.0602 -0.1122 -0.0949
v  0.0565 -0.1122 -0.0985
v  0.0515 -0.1122 -0.0999
v  -0.0485 -0.1122 -0.0999
v  -0.0535 -0.1122 -0.0985
v  -0.0571 -0.1122 -0.0949
v  -0.0585 -0.1122 -0.0899
v  -0.0585 -0.1022 0.0201
v  -0.0571 -0.1022 0.0251
v  -0.0535 -0.1022 0.0288
v  -0.0485 -0.1022 0.0301
v  0.0565 -0.1622 0.0288
v  -0.0571 -0.1622 0.0251
v  -0.0535 -0.1622 0.0288
v  0.0602 -0.1622 -0.0949
v  0.0565 -0.1622 -0.0985
v  -0.0535 -0.1622 -0.0985
v  -0.0571 -0.1622 -0.0949
v  -0.0585 -0.1622 -0.0899
v  0.0515 -0.1922 0.0301
v  0.0565 -0.1922 0.0288
v  0.0602 -0.1922 0.0251
v  0.0615 -0.1922 0.0201
v  0.0602 -0.1972 -0.0532
v  0.0615 -0.1822 -0.0799
v  0.0602 -0.1822 -0.0849
v  0.0565 -0.1822 -0.0885
v  0.0515 -0.1822 -0.0899
v  -0.0485 -0.1822 -0.0899
v  -0.0535 -0.1822 -0.0885
v  -0.0571 -0.1822 -0.0849
v  -0.0585 -0.1822 -0.0799
v  -0.0585 -0.1922 -0.0532
v  -0.0585 -0.1922 0.0201
v  -0.0571 -0.1922 0.0251
v  -0.0535 -0.1922 0.0288
v  -0.0485 -0.1922 0.0301
v  0.0515 -0.1972 0.0288
v  0.0559 -0.1972 0.0276
v  0.0590 -0.1972 0.0244
v  0.0602 -0.1972 0.0201
v  0.0602 -0.1872 -0.0799
v  0.0590 -0.1872 -0.0842
v  0.0559 -0.1872 -0.0874
v  0.0515 -0.1872 -0.0885
v  -0.0485 -0.1872 -0.0885
v  -0.0528 -0.1872 -0.0874
v  -0.0560 -0.1872 -0.0842
v  -0.0571 -0.1872 -0.0799
v  -0.0571 -0.1972 -0.0532
v  -0.0571 -0.1972 0.0201
v  -0.0560 -0.1972 0.0244
v  -0.0528 -0.1972 0.0276
v  -0.0485 -0.1972 0.0288
v  0.0515 -0.2008 0.0251
v  0.0540 -0.2008 0.0244
v  0.0559 -0.2008 0.0226
v  0.0565 -0.2008 0.0201
v  0.0565 -0.2008 -0.0532
v  0.0565 -0.1908 -0.0799
v  0.0559 -0.1908 -0.0824
v  0.0540 -0.1908 -0.0842
v  0.0515 -0.1908 -0.0849
v  -0.0485 -0.1908 -0.0849
v  -0.0510 -0.1908 -0.0842
v  -0.0528 -0.1908 -0.0824
v  -0.0535 -0.1908 -0.0799
v  -0.0535 -0.2008 -0.0532
v  -0.0535 -0.2008 0.0201
v  -0.0528 -0.2008 0.0226
v  -0.0510 -0.2008 0.0244
v  -0.0485 -0.2008 0.0251
v  0.0515 -0.2022 0.0201
v  0.0515 -0.1922 -0.0799
v  -0.0485 -0.1922 -0.0799
v  -0.0485 -0.2022 0.0201
# 122 vertices

vn 0.1059 0.9889 0.1039
vn 0.3774 0.9187 -0.1164
vn -0.1059 0.9889 0.1039
vn -0.3774 0.9187 -0.1164
vn 0.1021 0.9676 -0.2310
vn -0.1021 0.9676 -0.2310
vn 0.0698 0.8549 0.5140
vn 0.2654 0.8474 0.4598
vn 0.4598 0.8474 0.2654
vn 0.5140 0.8549 0.0698
vn 0.5161 0.8362 -0.1854
vn 0.4598 0.8474 -0.2654
vn 0.2654 0.8474 -0.4598
vn 0.0698 0.8549 -0.5140
vn -0.0698 0.8549 -0.5140
vn -0.2654 0.8474 -0.4598
vn -0.4598 0.8474 -0.2654
vn -0.5161 0.8362 -0.1854
vn -0.5140 0.8549 0.0698
vn -0.4598 0.8474 0.2654
vn -0.2654 0.8474 0.4598
vn -0.0698 0.8549 0.5140
vn 0.1129 0.4883 0.8653
vn 0.4380 0.4823 0.7586
vn 0.7586 0.4823 0.4380
vn 0.8653 0.4883 0.1129
vn 0.9050 0.4222 -0.0528
vn 0.8669 0.4664 -0.1760
vn 0.7586 0.4823 -0.4380
vn 0.4380 0.4823 -0.7586
vn 0.1129 0.4883 -0.8653
vn -0.1129 0.4883 -0.8653
vn -0.4380 0.4823 -0.7586
vn -0.7586 0.4823 -0.4380
vn -0.8669 0.4664 -0.1760
vn -0.9050 0.4222 -0.0528
vn -0.8653 0.4883 0.1129
vn -0.7586 0.4823 0.4380
vn -0.4380 0.4823 0.7586
vn -0.1129 0.4883 0.8653
vn 0.1247 0.1223 0.9846
vn 0.4959 0.1278 0.8589
vn 0.8589 0.1278 0.4959
vn 0.9857 0.1187 0.1192
vn 0.9213 0.0046 0.3888
vn 0.9848 0.1100 -0.1341
vn 0.8589 0.1278 -0.4959
vn 0.4959 0.1278 -0.8589
vn 0.1240 0.1210 -0.9849
vn -0.1240 0.1210 -0.9849
vn -0.4959 0.1278 -0.8589
vn -0.8589 0.1278 -0.4959
vn -0.9839 0.1154 -0.1362
vn -0.9857 0.1187 0.1192
vn -0.8589 0.1278 0.4959
vn -0.4959 0.1278 0.8589
vn -0.1247 0.1223 0.9846
vn 0.3925 0.0051 0.9197
vn -0.9190 0.0084 0.3943
vn -0.3925 0.0051 0.9197
vn 0.8942 -0.1120 -0.4334
vn 0.3709 -0.1999 -0.9069
vn -0.3709 -0.1999 -0.9069
vn -0.8434 -0.1316 -0.5209
vn -0.9885 -0.0399 -0.1457
vn 0.1212 -0.1158 0.9858
vn 0.4959 -0.1278 0.8589
vn 0.8589 -0.1278 0.4959
vn 0.9871 -0.1114 0.1151
vn 0.8959 -0.4376 -0.0769
vn 0.9873 -0.1095 -0.1150
vn 0.8586 -0.2359 -0.4551
vn 0.4895 -0.3284 -0.8078
vn 0.1144 -0.3405 -0.9332
vn -0.1144 -0.3405 -0.9332
vn -0.4895 -0.3284 -0.8078
vn -0.8586 -0.2359 -0.4551
vn -0.9825 -0.1358 -0.1272
vn -0.9890 -0.1450 -0.0298
vn -0.9852 -0.1181 0.1240
vn -0.8589 -0.1278 0.4959
vn -0.4959 -0.1278 0.8589
vn -0.1212 -0.1158 0.9858
vn 0.1129 -0.4883 0.8653
vn 0.4380 -0.4823 0.7586
vn 0.7586 -0.4823 0.4380
vn 0.8653 -0.4883 0.1129
vn 0.8667 -0.4581 -0.1972
vn 0.7586 -0.4823 -0.4380
vn 0.4380 -0.4823 -0.7586
vn 0.1129 -0.4883 -0.8653
vn -0.1129 -0.4883 -0.8653
vn -0.4380 -0.4823 -0.7586
vn -0.7586 -0.4823 -0.4380
vn -0.8667 -0.4581 -0.1972
vn -0.8498 -0.5179 -0.0985
vn -0.8653 -0.4883 0.1129
vn -0.7586 -0.4823 0.4380
vn -0.4380 -0.4823 0.7586
vn -0.1129 -0.4883 0.8653
vn 0.0698 -0.8549 0.5140
vn 0.2654 -0.8474 0.4598
vn 0.4598 -0.8474 0.2654
vn 0.5140 -0.8549 0.0698
vn 0.3740 -0.9145 -0.1547
vn 0.5152 -0.8267 -0.2261
vn 0.4598 -0.8474 -0.2655
vn 0.2654 -0.8474 -0.4598
vn 0.0698 -0.8549 -0.5140
vn -0.0698 -0.8549 -0.5140
vn -0.2654 -0.8474 -0.4598
vn -0.4598 -0.8474 -0.2654
vn -0.5152 -0.8267 -0.2261
vn -0.3740 -0.9145 -0.1547
vn -0.5140 -0.8549 0.0698
vn -0.4598 -0.8474 0.2654
vn -0.2654 -0.8474 0.4598
vn -0.0698 -0.8549 0.5140
vn 0.1059 -0.9889 0.1039
vn 0.0993 -0.9567 -0.2736
vn -0.0993 -0.9567 -0.2736
vn -0.1059 -0.9889 0.1039
# 122 vertex normals

vt 0.0833 0.9231 0.0000
vt 0.0833 0.6410 0.0000
vt 0.9167 0.6410 0.0000
vt 0.9167 0.3590 0.0000
vt 0.0833 0.3590 0.0000
vt 0.0833 0.0769 0.0000
vt 0.9167 0.0769 0.0000
vt 0.0833 0.9615 0.0000
vt 0.0625 0.9564 0.0000
vt 0.0472 0.9423 0.0000
vt 0.0417 0.9231 0.0000
vt 0.0417 0.6410 0.0000
vt 0.0417 0.0769 0.0000
vt 0.0472 0.0577 0.0000
vt 0.0625 0.0436 0.0000
vt 0.0833 0.0385 0.0000
vt 0.9167 0.0385 0.0000
vt 0.9375 0.0436 0.0000
vt 0.9528 0.0577 0.0000
vt 0.9583 0.0769 0.0000
vt 0.9583 0.3590 0.0000
vt 0.9583 0.6410 0.0000
vt 0.9167 0.9231 0.0000
vt 0.9583 0.9231 0.0000
vt 0.9528 0.9423 0.0000
vt 0.9375 0.9564 0.0000
vt 0.9167 0.9615 0.0000
vt 0.0833 0.9897 0.0000
vt 0.0472 0.9808 0.0000
vt 0.0208 0.9564 0.0000
vt 0.0112 0.9231 0.0000
vt 0.0112 0.6410 0.0000
vt 0.0417 0.3590 0.0000
vt 0.0112 0.3590 0.0000
vt 0.0112 0.0769 0.0000
vt 0.0208 0.0436 0.0000
vt 0.0472 0.0192 0.0000
vt 0.0833 0.0103 0.0000
vt 0.9167 0.0103 0.0000
vt 0.9528 0.0192 0.0000
vt 0.9792 0.0436 0.0000
vt 0.9888 0.0769 0.0000
vt 0.9888 0.3590 0.0000
vt 0.9888 0.6410 0.0000
vt 0.9888 0.9231 0.0000
vt 0.9792 0.9564 0.0000
vt 0.9528 0.9808 0.0000
vt 0.9167 0.9897 0.0000
vt 0.0833 1.0000 0.0000
vt 0.0417 0.9897 0.0000
vt 0.0112 0.9615 0.0000
vt 0.0000 0.9231 0.0000
vt 0.0000 0.6410 0.0000
vt 0.1702 1.0000 0.0000
vt 0.1702 0.6667 0.0000
vt 0.2404 0.6667 0.0000
vt 0.2326 0.7210 0.0000
vt 0.0000 0.0769 0.0000
vt 0.0112 0.0385 0.0000
vt 0.0417 0.0103 0.0000
vt 0.0833 0.0000 0.0000
vt 0.9167 0.0000 0.0000
vt 0.9583 0.0103 0.0000
vt 0.9888 0.0385 0.0000
vt 1.0000 0.0769 0.0000
vt 1.0000 0.3590 0.0000
vt 1.0000 0.6410 0.0000
vt 1.0000 0.9231 0.0000
vt 0.9888 0.9615 0.0000
vt 0.9583 0.9897 0.0000
vt 0.9167 1.0000 0.0000
vt 0.0000 1.0000 0.0000
vt 0.0099 0.6667 0.0000
vt 0.0099 1.0000 0.0000
vt 0.0198 0.6667 0.0000
vt 0.0198 1.0000 0.0000
vt 0.0297 0.6667 0.0000
vt 0.0297 1.0000 0.0000
vt 0.1000 1.0000 0.0000
vt 0.6319 1.0000 0.0000
vt 0.6319 0.6667 0.0000
vt 0.7021 0.6667 0.0000
vt 0.7021 1.0000 0.0000
vt 0.7120 0.6667 0.0000
vt 0.7120 1.0000 0.0000
vt 0.7219 0.6667 0.0000
vt 0.7219 1.0000 0.0000
vt 0.7319 0.6667 0.0000
vt 0.7319 1.0000 0.0000
vt 1.0000 0.6667 0.0000
vt 1.0000 1.0000 0.0000
vt 0.2404 0.3333 0.0000
vt 0.2503 0.3333 0.0000
vt 0.2503 0.6667 0.0000
vt 0.2603 0.3333 0.0000
vt 0.2603 0.6667 0.0000
vt 0.2702 0.3333 0.0000
vt 0.2702 0.6667 0.0000
vt 0.4617 0.3333 0.0000
vt 0.4617 0.6667 0.0000
vt 0.4716 0.3333 0.0000
vt 0.4716 0.6667 0.0000
vt 0.4815 0.3333 0.0000
vt 0.4815 0.6667 0.0000
vt 0.4914 0.3333 0.0000
vt 0.4914 0.6667 0.0000
vt 0.6319 0.3333 0.0000
vt 0.7021 0.3333 0.0000
vt 0.0000 0.3333 0.0000
vt 0.0000 0.0000 0.0000
vt 0.0099 0.0000 0.0000
vt 0.0099 0.3333 0.0000
vt 0.0198 0.0000 0.0000
vt 0.0198 0.3333 0.0000
vt 0.0297 0.0000 0.0000
vt 0.0297 0.3333 0.0000
vt 0.1000 0.0000 0.0000
vt 0.1702 0.3333 0.0000
vt 0.1702 0.0000 0.0000
vt 0.2404 0.0000 0.0000
vt 0.2503 0.0000 0.0000
vt 0.2603 0.0000 0.0000
vt 0.2702 0.0000 0.0000
vt 0.4617 0.0000 0.0000
vt 0.4716 0.0000 0.0000
vt 0.4815 0.0000 0.0000
vt 0.4914 0.0000 0.0000
vt 0.5617 0.0000 0.0000
vt 0.6573 0.0004 0.0000
vt 0.7021 0.0000 0.0000
vt 0.7120 0.0000 0.0000
vt 0.7120 0.3333 0.0000
vt 0.7219 0.0000 0.0000
vt 0.7219 0.3333 0.0000
vt 0.7319 0.0000 0.0000
vt 0.7319 0.3333 0.0000
vt 1.0000 0.0000 0.0000
vt 1.0000 0.3333 0.0000
vt 0.9545 0.3237 0.0000
# 139 texture coords

g AbgekQuader002
usemtl wire_132132132
s 1
f 1/1/1 2/2/2 3/3/3 
f 2/2/2 4/4/4 3/3/3 
f 2/5/2 5/6/5 6/7/6 4/4/4 
f 1/1/1 7/8/7 8/9/8 
f 1/1/1 8/9/8 9/10/9 
f 1/1/1 9/10/9 10/11/10 
f 1/1/1 10/11/10 2/12/2 
f 2/5/2 11/13/11 5/6/5 
f 5/6/5 11/13/11 12/14/12 
f 5/6/5 12/14/12 13/15/13 
f 5/6/5 13/15/13 14/16/14 
f 5/6/5 14/16/14 15/17/15 6/7/6 
f 6/7/6 15/17/15 16/18/16 
f 6/7/6 16/18/16 17/19/17 
f 6/7/6 17/19/17 18/20/18 
f 6/7/6 18/20/18 4/21/4 
f 4/4/4 19/22/19 3/3/3 
f 3/23/3 19/24/19 20/25/20 
f 3/23/3 20/25/20 21/26/21 
f 3/23/3 21/26/21 22/27/22 
f 3/23/3 22/27/22 7/8/7 1/1/1 
f 7/8/7 23/28/23 24/29/24 8/9/8 
f 8/9/8 24/29/24 25/30/25 9/10/9 
f 9/10/9 25/30/25 26/31/26 10/11/10 
f 10/11/10 26/31/26 27/32/27 2/12/2 
f 2/33/2 27/34/27 28/35/28 11/13/11 
f 11/13/11 28/35/28 29/36/29 12/14/12 
f 12/14/12 29/36/29 30/37/30 13/15/13 
f 13/15/13 30/37/30 31/38/31 14/16/14 
f 14/16/14 31/38/31 32/39/32 15/17/15 
f 15/17/15 32/39/32 33/40/33 16/18/16 
f 16/18/16 33/40/33 34/41/34 17/19/17 
f 17/19/17 34/41/34 35/42/35 18/20/18 
f 18/20/18 35/42/35 36/43/36 4/21/4 
f 4/21/4 36/43/36 37/44/37 19/22/19 
f 19/24/19 37/45/37 38/46/38 20/25/20 
f 20/25/20 38/46/38 39/47/39 21/26/21 
f 21/26/21 39/47/39 40/48/40 22/27/22 
f 22/27/22 40/48/40 23/28/23 7/8/7 
f 23/28/23 41/49/41 42/50/42 24/29/24 
f 24/29/24 42/50/42 43/51/43 25/30/25 
f 25/30/25 43/51/43 44/52/44 26/31/26 
f 26/31/26 44/53/44 27/32/27 
f 27/54/27 45/55/45 46/56/46 28/57/28 
f 28/35/28 46/58/46 47/59/47 29/36/29 
f 29/36/29 47/59/47 48/60/48 30/37/30 
f 30/37/30 48/60/48 49/61/49 31/38/31 
f 31/38/31 49/61/49 50/62/50 32/39/32 
f 32/39/32 50/62/50 51/63/51 33/40/33 
f 33/40/33 51/63/51 52/64/52 34/41/34 
f 34/41/34 52/64/52 53/65/53 35/42/35 
f 35/42/35 53/65/53 36/66/36 
f 37/44/37 36/67/36 54/68/54 
f 37/45/37 54/68/54 55/69/55 38/46/38 
f 38/46/38 55/69/55 56/70/56 39/47/39 
f 39/47/39 56/70/56 57/71/57 40/48/40 
f 40/48/40 57/71/57 41/49/41 23/28/23 
f 41/72/41 58/73/58 42/74/42 
f 42/74/42 58/73/58 45/75/45 43/76/43 
f 43/76/43 45/77/45 44/78/44 
f 44/79/44 45/55/45 27/54/27 
f 36/80/36 53/81/53 59/82/59 54/83/54 
f 54/83/54 59/84/59 55/85/55 
f 55/85/55 59/84/59 60/86/60 56/87/56 
f 56/87/56 60/88/60 57/89/57 
f 57/89/57 60/88/60 58/90/58 41/91/41 
f 45/55/45 61/92/61 46/56/46 
f 46/56/46 61/93/61 47/94/47 
f 47/94/47 61/93/61 62/95/62 48/96/48 
f 48/96/48 62/97/62 49/98/49 
f 49/98/49 62/97/62 63/99/63 50/100/50 
f 50/100/50 63/101/63 51/102/51 
f 51/102/51 63/101/63 64/103/64 52/104/52 
f 52/104/52 64/103/64 65/105/65 53/106/53 
f 53/81/53 65/107/65 59/108/59 
f 58/109/58 66/110/66 67/111/67 
f 58/112/58 67/111/67 68/113/68 45/114/45 
f 45/114/45 68/113/68 69/115/69 
f 45/116/45 69/115/69 70/117/70 
f 45/118/45 70/119/70 71/120/71 61/92/61 
f 61/92/61 71/120/71 72/121/72 
f 61/93/61 72/121/72 73/122/73 62/95/62 
f 62/95/62 73/122/73 74/123/74 
f 62/97/62 74/123/74 75/124/75 63/99/63 
f 63/99/63 75/124/75 76/125/76 
f 63/101/63 76/125/76 77/126/77 64/103/64 
f 64/103/64 77/126/77 78/127/78 65/105/65 
f 65/105/65 78/127/78 79/128/79 
f 65/107/65 79/129/79 80/130/80 59/108/59 
f 59/108/59 80/130/80 81/131/81 
f 59/132/59 81/131/81 82/133/82 60/134/60 
f 60/134/60 82/133/82 83/135/83 
f 60/136/60 83/135/83 66/137/66 58/138/58 
f 66/61/66 84/38/84 85/37/85 67/60/67 
f 67/60/67 85/37/85 86/36/86 68/59/68 
f 68/59/68 86/36/86 87/35/87 69/58/69 
f 69/58/69 87/35/87 70/34/70 
f 70/53/70 88/31/88 71/52/71 
f 71/52/71 88/31/88 89/30/89 72/51/72 
f 72/51/72 89/30/89 90/29/90 73/50/73 
f 73/50/73 90/29/90 91/28/91 74/49/74 
f 74/49/74 91/28/91 92/48/92 75/71/75 
f 75/71/75 92/48/92 93/47/93 76/70/76 
f 76/70/76 93/47/93 94/46/94 77/69/77 
f 77/69/77 94/46/94 95/45/95 78/68/78 
f 78/68/78 95/45/95 96/44/96 79/67/79 
f 79/67/79 96/44/96 97/43/97 80/66/80 
f 80/65/80 97/42/97 98/41/98 81/64/81 
f 81/64/81 98/41/98 99/40/99 82/63/82 
f 82/63/82 99/40/99 100/39/100 83/62/83 
f 83/62/83 100/39/100 84/38/84 66/61/66 
f 84/38/84 101/16/101 102/15/102 85/37/85 
f 85/37/85 102/15/102 103/14/103 86/36/86 
f 86/36/86 103/14/103 104/13/104 87/35/87 
f 87/35/87 104/13/104 105/33/105 70/34/70 
f 70/32/70 105/12/105 106/11/106 88/31/88 
f 88/31/88 106/11/106 107/10/107 89/30/89 
f 89/30/89 107/10/107 108/9/108 90/29/90 
f 90/29/90 108/9/108 109/8/109 91/28/91 
f 91/28/91 109/8/109 110/27/110 92/48/92 
f 92/48/92 110/27/110 111/26/111 93/47/93 
f 93/47/93 111/26/111 112/25/112 94/46/94 
f 94/46/94 112/25/112 113/24/113 95/45/95 
f 95/45/95 113/24/113 114/22/114 96/44/96 
f 96/44/96 114/22/114 115/21/115 97/43/97 
f 97/42/97 115/20/115 116/19/116 98/41/98 
f 98/41/98 116/19/116 117/18/117 99/40/99 
f 99/40/99 117/18/117 118/17/118 100/39/100 
f 100/39/100 118/17/118 101/16/101 84/38/84 
f 101/16/101 119/6/119 102/15/102 
f 102/15/102 119/6/119 103/14/103 
f 103/14/103 119/6/119 104/13/104 
f 104/13/104 119/5/119 105/33/105 
f 105/12/105 120/1/120 106/11/106 
f 106/11/106 120/1/120 107/10/107 
f 107/10/107 120/1/120 108/9/108 
f 108/9/108 120/1/120 109/8/109 
f 109/8/109 120/1/120 121/23/121 110/27/110 
f 110/27/110 121/23/121 111/26/111 
f 111/26/111 121/23/121 112/25/112 
f 112/25/112 121/23/121 113/24/113 
f 113/24/113 121/23/121 114/3/114 
f 115/21/115 114/4/114 122/7/122 116/139/116 
f 116/19/116 122/7/122 117/18/117 
f 117/18/117 122/7/122 118/17/118 
f 118/17/118 122/7/122 119/6/119 101/16/101 
f 114/3/114 121/23/121 120/1/120 105/2/105 
f 114/4/114 105/2/105 119/5/119 
f 122/7/122 114/4/114 119/5/119 
# 91 polygons - 58 triangles

#
# object Zylinder005
#

v  0.0015 -0.2172 0.0001
v  -0.0197 -0.2172 0.0213
v  -0.0262 -0.2172 0.0116
v  -0.0285 -0.2172 0.0001
v  0.0015 -0.2172 0.0301
v  -0.0100 -0.2172 0.0278
v  0.0227 -0.2172 0.0213
v  0.0130 -0.2172 0.0278
v  0.0315 -0.2172 0.0001
v  0.0292 -0.2172 0.0116
v  0.0227 -0.2172 -0.0211
v  0.0292 -0.2172 -0.0114
v  0.0015 -0.2172 -0.0299
v  0.0130 -0.2172 -0.0276
v  -0.0197 -0.2172 -0.0211
v  -0.0100 -0.2172 -0.0276
v  -0.0262 -0.2172 -0.0114
v  -0.0262 -0.1772 0.0116
v  -0.0285 -0.1772 0.0001
v  -0.0197 -0.1772 0.0213
v  -0.0100 -0.1772 0.0278
v  0.0015 -0.1772 0.0301
v  0.0130 -0.1772 0.0278
v  0.0227 -0.1772 0.0213
v  0.0292 -0.1772 0.0116
v  0.0315 -0.1772 0.0001
v  0.0292 -0.1772 -0.0114
v  0.0227 -0.1772 -0.0211
v  0.0130 -0.1772 -0.0276
v  0.0015 -0.1772 -0.0299
v  -0.0100 -0.1772 -0.0276
v  -0.0197 -0.1772 -0.0211
v  -0.0262 -0.1772 -0.0114
v  0.0015 -0.1772 0.0001
# 34 vertices

vn 0.0000 -1.0000 -0.0000
vn -1.0000 0.0000 0.0000
vn -0.9239 0.0000 0.3827
vn -0.7071 0.0000 0.7071
vn -0.3827 0.0000 0.9239
vn 0.0000 0.0000 1.0000
vn 0.3827 0.0000 0.9239
vn 0.7071 0.0000 0.7071
vn 0.9239 0.0000 0.3827
vn 1.0000 0.0000 0.0000
vn 0.9239 0.0000 -0.3827
vn 0.7071 0.0000 -0.7071
vn 0.3827 0.0000 -0.9239
vn -0.0000 0.0000 -1.0000
vn -0.3827 0.0000 -0.9239
vn -0.7071 0.0000 -0.7071
vn -0.9239 0.0000 -0.3827
vn 0.0000 1.0000 -0.0000
# 18 vertex normals

vt 0.5000 0.0000 0.0000
vt 0.8750 0.0000 1.0000
vt 0.8125 0.0000 1.0000
vt 0.7500 0.0000 1.0000
vt 0.0000 0.0000 1.0000
vt -0.0625 0.0000 1.0000
vt -0.0394 0.0000 0.8478
vt 0.1250 0.0000 1.0000
vt 0.0625 0.0000 1.0000
vt 0.2500 0.0000 1.0000
vt 0.1875 0.0000 1.0000
vt 0.3750 0.0000 1.0000
vt 0.3125 0.0000 1.0000
vt 0.5000 0.0000 1.0000
vt 0.4375 0.0000 1.0000
vt 0.6250 0.0000 1.0000
vt 0.5625 0.0000 1.0000
vt 0.6875 0.0000 1.0000
vt 0.8125 1.0000 1.0000
vt 0.7500 1.0000 1.0000
vt 0.8750 1.0000 1.0000
vt 0.9375 0.0000 1.0000
vt 0.9375 1.0000 1.0000
vt 0.0000 1.0000 1.0000
vt -0.0625 1.0000 1.0000
vt 0.0625 1.0000 1.0000
vt 0.1250 1.0000 1.0000
vt 0.1875 1.0000 1.0000
vt 0.2500 1.0000 1.0000
vt 0.3125 1.0000 1.0000
vt 0.3750 1.0000 1.0000
vt 0.4375 1.0000 1.0000
vt 0.5000 1.0000 1.0000
vt 0.5625 1.0000 1.0000
vt 0.6250 1.0000 1.0000
vt 0.6875 1.0000 1.0000
vt 0.5000 1.0000 0.0000
# 37 texture coords

g Zylinder005
usemtl wire_132132132
s 1
f 123/140/123 124/141/123 125/142/123 126/143/123 
f 123/140/123 127/144/123 128/145/123 124/146/123 
f 123/140/123 129/147/123 130/148/123 127/144/123 
f 123/140/123 131/149/123 132/150/123 129/147/123 
f 123/140/123 133/151/123 134/152/123 131/149/123 
f 123/140/123 135/153/123 136/154/123 133/151/123 
f 123/140/123 137/155/123 138/156/123 135/153/123 
f 123/140/123 126/143/123 139/157/123 137/155/123 
s 8
f 126/143/124 125/142/125 140/158/125 141/159/124 
f 125/142/125 124/141/126 142/160/126 140/158/125 
f 124/141/126 128/161/127 143/162/127 142/160/126 
f 128/145/127 127/144/128 144/163/128 143/164/127 
f 127/144/128 130/148/129 145/165/129 144/163/128 
f 130/148/129 129/147/130 146/166/130 145/165/129 
f 129/147/130 132/150/131 147/167/131 146/166/130 
f 132/150/131 131/149/132 148/168/132 147/167/131 
f 131/149/132 134/152/133 149/169/133 148/168/132 
f 134/152/133 133/151/134 150/170/134 149/169/133 
f 133/151/134 136/154/135 151/171/135 150/170/134 
f 136/154/135 135/153/136 152/172/136 151/171/135 
f 135/153/136 138/156/137 153/173/137 152/172/136 
f 138/156/137 137/155/138 154/174/138 153/173/137 
f 137/155/138 139/157/139 155/175/139 154/174/138 
f 139/157/139 126/143/124 141/159/124 155/175/139 
s 1
f 156/176/140 155/175/140 141/159/140 140/158/140 
f 156/176/140 140/158/140 142/160/140 143/162/140 
f 156/176/140 143/164/140 144/163/140 145/165/140 
f 156/176/140 145/165/140 146/166/140 147/167/140 
f 156/176/140 147/167/140 148/168/140 149/169/140 
f 156/176/140 149/169/140 150/170/140 151/171/140 
f 156/176/140 151/171/140 152/172/140 153/173/140 
f 156/176/140 153/173/140 154/174/140 155/175/140 
# 32 polygons

#
# object Zylinder007
#

v  -0.0485 -0.0922 0.0001
v  -0.0485 -0.0724 -0.0197
v  -0.0485 -0.0815 -0.0258
v  -0.0485 -0.0922 -0.0279
v  -0.0485 -0.0642 0.0001
v  -0.0485 -0.0663 -0.0106
v  -0.0485 -0.0724 0.0199
v  -0.0485 -0.0663 0.0108
v  -0.0485 -0.0922 0.0281
v  -0.0485 -0.0815 0.0260
v  -0.0485 -0.1120 0.0199
v  -0.0485 -0.1029 0.0260
v  -0.0485 -0.1202 0.0001
v  -0.0485 -0.1180 0.0108
v  -0.0485 -0.1120 -0.0197
v  -0.0485 -0.1180 -0.0106
v  -0.0485 -0.1029 -0.0258
v  0.0515 -0.0815 -0.0258
v  0.0515 -0.0922 -0.0279
v  0.0515 -0.0724 -0.0197
v  0.0515 -0.0663 -0.0106
v  0.0515 -0.0642 0.0001
v  0.0515 -0.0663 0.0108
v  0.0515 -0.0724 0.0199
v  0.0515 -0.0815 0.0260
v  0.0515 -0.0922 0.0281
v  0.0515 -0.1029 0.0260
v  0.0515 -0.1120 0.0199
v  0.0515 -0.1180 0.0108
v  0.0515 -0.1202 0.0001
v  0.0515 -0.1180 -0.0106
v  0.0515 -0.1120 -0.0197
v  0.0515 -0.1029 -0.0258
v  0.0515 -0.0922 0.0001
# 34 vertices

vn -1.0000 0.0000 -0.0000
vn 0.0000 0.0000 -1.0000
vn 0.0000 0.3827 -0.9239
vn 0.0000 0.7071 -0.7071
vn 0.0000 0.9239 -0.3827
vn 0.0000 1.0000 -0.0000
vn 0.0000 0.9239 0.3827
vn 0.0000 0.7071 0.7071
vn 0.0000 0.3827 0.9239
vn -0.0000 0.0000 1.0000
vn -0.0000 -0.3827 0.9239
vn -0.0000 -0.7071 0.7071
vn -0.0000 -0.9239 0.3827
vn -0.0000 -1.0000 -0.0000
vn -0.0000 -0.9239 -0.3827
vn -0.0000 -0.7071 -0.7071
vn -0.0000 -0.3827 -0.9239
vn 1.0000 -0.0000 0.0000
# 18 vertex normals

vt 0.5000 0.0000 0.0000
vt 0.8750 0.0000 1.0000
vt 0.8125 0.0000 1.0000
vt 0.7500 0.0000 1.0000
vt 0.0000 0.0000 1.0000
vt -0.0625 0.0000 1.0000
vt -0.0394 0.0000 0.8478
vt 0.1250 0.0000 1.0000
vt 0.0625 0.0000 1.0000
vt 0.2500 0.0000 1.0000
vt 0.1875 0.0000 1.0000
vt 0.3750 0.0000 1.0000
vt 0.3125 0.0000 1.0000
vt 0.5000 0.0000 1.0000
vt 0.4375 0.0000 1.0000
vt 0.6250 0.0000 1.0000
vt 0.5625 0.0000 1.0000
vt 0.6875 0.0000 1.0000
vt 0.8125 1.0000 1.0000
vt 0.7500 1.0000 1.0000
vt 0.8750 1.0000 1.0000
vt 0.9375 0.0000 1.0000
vt 0.9375 1.0000 1.0000
vt 0.0000 1.0000 1.0000
vt -0.0625 1.0000 1.0000
vt 0.0625 1.0000 1.0000
vt 0.1250 1.0000 1.0000
vt 0.1875 1.0000 1.0000
vt 0.2500 1.0000 1.0000
vt 0.3125 1.0000 1.0000
vt 0.3750 1.0000 1.0000
vt 0.4375 1.0000 1.0000
vt 0.5000 1.0000 1.0000
vt 0.5625 1.0000 1.0000
vt 0.6250 1.0000 1.0000
vt 0.6875 1.0000 1.0000
vt 0.5000 1.0000 0.0000
# 37 texture coords

g Zylinder007
usemtl wire_132132132
s 1
f 157/177/141 158/178/141 159/179/141 160/180/141 
f 157/177/141 161/181/141 162/182/141 158/183/141 
f 157/177/141 163/184/141 164/185/141 161/181/141 
f 157/177/141 165/186/141 166/187/141 163/184/141 
f 157/177/141 167/188/141 168/189/141 165/186/141 
f 157/177/141 169/190/141 170/191/141 167/188/141 
f 157/177/141 171/192/141 172/193/141 169/190/141 
f 157/177/141 160/180/141 173/194/141 171/192/141 
s 8
f 160/180/142 159/179/143 174/195/143 175/196/142 
f 159/179/143 158/178/144 176/197/144 174/195/143 
f 158/178/144 162/198/145 177/199/145 176/197/144 
f 162/182/145 161/181/146 178/200/146 177/201/145 
f 161/181/146 164/185/147 179/202/147 178/200/146 
f 164/185/147 163/184/148 180/203/148 179/202/147 
f 163/184/148 166/187/149 181/204/149 180/203/148 
f 166/187/149 165/186/150 182/205/150 181/204/149 
f 165/186/150 168/189/151 183/206/151 182/205/150 
f 168/189/151 167/188/152 184/207/152 183/206/151 
f 167/188/152 170/191/153 185/208/153 184/207/152 
f 170/191/153 169/190/154 186/209/154 185/208/153 
f 169/190/154 172/193/155 187/210/155 186/209/154 
f 172/193/155 171/192/156 188/211/156 187/210/155 
f 171/192/156 173/194/157 189/212/157 188/211/156 
f 173/194/157 160/180/142 175/196/142 189/212/157 
s 1
f 190/213/158 189/212/158 175/196/158 174/195/158 
f 190/213/158 174/195/158 176/197/158 177/199/158 
f 190/213/158 177/201/158 178/200/158 179/202/158 
f 190/213/158 179/202/158 180/203/158 181/204/158 
f 190/213/158 181/204/158 182/205/158 183/206/158 
f 190/213/158 183/206/158 184/207/158 185/208/158 
f 190/213/158 185/208/158 186/209/158 187/210/158 
f 190/213/158 187/210/158 188/211/158 189/212/158 
# 32 polygons

